<svg id="Camada_1" data-name="Camada 1" xmlns="http://www.w3.org/2000/svg" viewBox="0 0 590 569.4">
  <defs>
    <style>
      .cls-1 {
        fill: #694b4b;
      }

      .cls-2 {
        fill: #5a4146;
      }

      .cls-3 {
        fill: #785550;
      }

      .cls-4 {
        fill: #e6af78;
      }

      .cls-5 {
        fill: #eff2fa;
      }

      .cls-6 {
        fill: #d29b6e;
      }

      .cls-7 {
        fill: #e4eaf6;
      }

      .cls-8 {
        fill: #f0c087;
      }

      .cls-9 {
        fill: #5b5d6e;
      }

      .cls-10 {
        fill: #515262;
      }

      .cls-11 {
        fill: #b4e1fa;
      }

      .cls-12 {
        fill: #a0d2f0;
      }

      .cls-13 {
        font-size: 107px;
        fill: #e60004;
        font-family: Novecentosanswide-DemiBold, Novecento sans wide;
        font-weight: 700;
        letter-spacing: 0.01em;
      }

      .cls-14 {
        letter-spacing: -0.01em;
      }

      .cls-15 {
        letter-spacing: 0.01em;
      }

      .cls-16 {
        fill: #0064aa;
      }

      .cls-17 {
        fill: #fff;
      }
    </style>
  </defs>
  <title>logo</title>
  <path class="cls-1" d="M512.6,272.4c-66.4,0-59,75.1-58.7,129.6a5.7,5.7,0,0,0,3.1,5c7.4,4.1,27.6,13.8,55.7,13.8s48.3-9.6,55.7-13.8a5.7,5.7,0,0,0,3.1-5C571.6,347.6,579,272.4,512.6,272.4Z" transform="translate(-353.8 -195.6)"/>
  <path class="cls-2" d="M508.3,272.6c-61.7,3.2-54.7,76.2-54.4,129.4a5.7,5.7,0,0,0,3.1,5c7.4,4.1,27.6,13.8,55.7,13.8l16.8-109.3" transform="translate(-353.8 -195.6)"/>
  <path class="cls-1" d="M512.6,272.4c-37.7,0-40.4,42.4-40.4,42.4,21.8-3.4,35.1,5.1,57.1-3.4L512.6,420.8c28.1,0,48.3-9.6,55.7-13.8a5.7,5.7,0,0,0,3.1-5C571.6,347.6,579,272.4,512.6,272.4Z" transform="translate(-353.8 -195.6)"/>
  <path class="cls-3" d="M571.3,402c.3-46.8,5.7-108.8-34.9-125.3-.7,3.4-2,13,1.3,19.2,8.4,15.6,16.8,15.6,25.2,27.3,8.4,42.9-16,88.5-24.1,94.7h0A110,110,0,0,0,568.2,407,5.7,5.7,0,0,0,571.3,402Z" transform="translate(-353.8 -195.6)"/>
  <path class="cls-4" d="M576.1,413.9l-37.4-14.5a7.8,7.8,0,0,1-5.2-7.2v-9.4H491.6v9.4a7.8,7.8,0,0,1-5.2,7.2L449,413.9a11.7,11.7,0,0,0-7.7,10.8v15.6c0,4.3,3.8,7.8,8.4,7.8H575.5c4.6,0,8.4-3.5,8.4-7.8V424.7A11.7,11.7,0,0,0,576.1,413.9Z" transform="translate(-353.8 -195.6)"/>
  <path class="cls-5" d="M576.1,413.9l-36.2-14-27.4,11-27.4-11-36.2,14a11.7,11.7,0,0,0-7.7,10.8v15.6c0,4.3,3.8,7.8,8.4,7.8H575.5c4.6,0,8.4-3.5,8.4-7.8V424.7A11.7,11.7,0,0,0,576.1,413.9Z" transform="translate(-353.8 -195.6)"/>
  <path class="cls-6" d="M533.6,382.7H491.6v9.4a7.8,7.8,0,0,1-5.2,7.2l-5.8,2.3C525.3,412.2,533.6,382.7,533.6,382.7Z" transform="translate(-353.8 -195.6)"/>
  <g>
    <path class="cls-7" d="M461.7,429l-16.8-12.5a11.3,11.3,0,0,0-3.6,8.2v15.6c0,4.3,3.8,7.8,8.4,7.8h16.8v-10A11.4,11.4,0,0,0,461.7,429Z" transform="translate(-353.8 -195.6)"/>
    <path class="cls-7" d="M583.9,440.3V424.7a11.3,11.3,0,0,0-3.6-8.1L563.4,429a11.4,11.4,0,0,0-4.7,9.1v10h16.8C580.1,448.1,583.9,444.6,583.9,440.3Z" transform="translate(-353.8 -195.6)"/>
    <path class="cls-7" d="M513.2,440.3H512a3.4,3.4,0,0,1-3.6-3.3V410.8h8.4V437A3.4,3.4,0,0,1,513.2,440.3Z" transform="translate(-353.8 -195.6)"/>
    <path class="cls-7" d="M512.6,410.8l-24-16.8a3.5,3.5,0,0,0-4.8.8l-4.7,6.6,14.7,19.2a3.5,3.5,0,0,0,4.8.6Z" transform="translate(-353.8 -195.6)"/>
    <path class="cls-7" d="M512.6,410.8l24-16.8a3.5,3.5,0,0,1,4.8.8l4.7,6.6-14.7,19.2a3.5,3.5,0,0,1-4.8.6Z" transform="translate(-353.8 -195.6)"/>
  </g>
  <path class="cls-8" d="M533.6,307.6c-21,19.5-62.1,3.9-62.1,35.1l2.6,23a15.6,15.6,0,0,0,8.6,12.2l23.9,12.3a13.4,13.4,0,0,0,12.2,0l23.9-12.3a15.6,15.6,0,0,0,8.6-12.2l3-27.3a40.1,40.1,0,0,0,.2-5.8C552.8,322.6,537.7,315.4,533.6,307.6Z" transform="translate(-353.8 -195.6)"/>
  <path class="cls-4" d="M471.4,342.7l2.6,23a15.6,15.6,0,0,0,8.6,12.2l23.9,12.3a13.3,13.3,0,0,0,8.5,1.2h0s-12-3.4-19.2-21.4c-2.2-5.5-5.2-34.8-2.6-38.4,5.2-7.1,34.1-7.8,42.6-20.9l-1.2-1.5h-.1l-1-1.6C512.6,327.1,471.4,311.5,471.4,342.7Z" transform="translate(-353.8 -195.6)"/>
  <path class="cls-7" d="M543.2,440.3H532.3a6.9,6.9,0,0,0-7.1,6.6v1.2h25.2v-1.2A6.9,6.9,0,0,0,543.2,440.3Z" transform="translate(-353.8 -195.6)"/>
  <polygon class="cls-4" points="445.3 200.1 445.3 178.6 386.1 178.6 386.1 200.1 415.7 224.6 445.3 200.1"/>
  <path class="cls-5" d="M844.9,405.7l-40.7-8.9-1.7-.6-33,17.9-31.7-18.8a6.7,6.7,0,0,1-3,1.5l-40.7,8.9a12.5,12.5,0,0,0-10.1,11.9v24a6.4,6.4,0,0,0,6.6,6.1H848.5a6.4,6.4,0,0,0,6.6-6.1v-24A12.5,12.5,0,0,0,844.9,405.7Z" transform="translate(-353.8 -195.6)"/>
  <path class="cls-6" d="M739.9,374.3v22.6c37.3,12.5,59.2-18.8,59.2-18.8v-3.8Z" transform="translate(-353.8 -195.6)"/>
  <path class="cls-8" d="M726.7,303.8l2.9,58.7a18,18,0,0,0,7.9,13.9l13.6,9.5a20.7,20.7,0,0,0,11.8,3.7h13.2a20.7,20.7,0,0,0,11.8-3.7l13.6-9.5a18,18,0,0,0,7.9-13.9l2.9-58.7Z" transform="translate(-353.8 -195.6)"/>
  <path class="cls-4" d="M759.6,316.1c13.2,0,32.9-3.1,37.6-12.3H726.7l2.9,58.7a18,18,0,0,0,7.9,13.9l13.6,9.5a20.7,20.7,0,0,0,11.8,3.7h6.6c-6.6,0-19.7-12.3-19.7-27.6V325.3C749.8,322.2,753,316.1,759.6,316.1Z" transform="translate(-353.8 -195.6)"/>
  <path class="cls-7" d="M830.9,427.9l21.3-17.8a11.7,11.7,0,0,1,2.8,7.6v24a6.4,6.4,0,0,1-6.6,6.1h-23v-8.5A14.9,14.9,0,0,1,830.9,427.9Z" transform="translate(-353.8 -195.6)"/>
  <polygon class="cls-9" points="423.9 252.1 407.4 252.1 409.5 224.6 421.8 224.6 423.9 252.1"/>
  <path class="cls-10" d="M777.7,414.1H761.3v1.8a7.7,7.7,0,0,0,8,7.4h.5a7.7,7.7,0,0,0,8-7.4v-1.8Z" transform="translate(-353.8 -195.6)"/>
  <g>
    <path class="cls-7" d="M739.4,388.9l30.1,25.2A114.5,114.5,0,0,0,750.7,426a4.4,4.4,0,0,1-6.5-1.4L730,395.7l4.5-6.2A3.4,3.4,0,0,1,739.4,388.9Z" transform="translate(-353.8 -195.6)"/>
    <path class="cls-7" d="M799.6,388.9l-30.1,25.2A114.5,114.5,0,0,1,788.3,426a4.4,4.4,0,0,0,6.5-1.4L809,395.7l-4.5-6.2A3.4,3.4,0,0,0,799.6,388.9Z" transform="translate(-353.8 -195.6)"/>
  </g>
  <path class="cls-3" d="M789.5,283.5l3.1,20.3c14.1,2.6,16.1,23.2,16.4,29.1a5.8,5.8,0,0,0,1,3l5.4,7.8s-1.8-12.8,6.6-21.4C821.9,322.2,824.8,271.3,789.5,283.5Z" transform="translate(-353.8 -195.6)"/>
  <path class="cls-8" d="M818.7,342.3l-3.7,13.8a3.9,3.9,0,0,1-3.8,2.8h0a3.9,3.9,0,0,1-3.9-3.2l-1.9-14.1c-.5-3.8,2.7-7.1,6.8-7.1h0C816.5,334.5,819.7,338.3,818.7,342.3Z" transform="translate(-353.8 -195.6)"/>
  <path class="cls-1" d="M729.9,278.1l4.9,3.1c-22,15.1-17.9,41.1-17.9,41.1,6.6,6.1,6.6,21.4,6.6,21.4l6.6-6.1s-2.5-17.7,9.9-24.5,21.6-3.1,31.9-3.1c27.6,0,35.3-9.7,33.9-21.4-.7-6.1-10.7-18.8-36.2-18.4C759.2,270.3,739.9,273.2,729.9,278.1Z" transform="translate(-353.8 -195.6)"/>
  <path class="cls-2" d="M728,307.3s-3.5-12.8,6.8-26.1c-22,15.1-17.9,41.1-17.9,41.1,6.6,6.1,6.6,21.4,6.6,21.4l6.6-6.1s-2.5-17.7,9.9-24.5,21.6-3.1,31.9-3.1a86.8,86.8,0,0,0,11.9-.8C762.4,309.9,749.9,294.9,728,307.3Z" transform="translate(-353.8 -195.6)"/>
  <path class="cls-4" d="M720.3,342.3l3.7,13.8a3.9,3.9,0,0,0,3.8,2.8h0a3.9,3.9,0,0,0,3.9-3.2l1.9-14.1c.5-3.8-2.7-7.1-6.8-7.1h0C722.5,334.5,719.3,338.3,720.3,342.3Z" transform="translate(-353.8 -195.6)"/>
  <path class="cls-7" d="M809,441.6H792.5a6.4,6.4,0,0,0-6.6,6.1h29.6A6.4,6.4,0,0,0,809,441.6Z" transform="translate(-353.8 -195.6)"/>
  <path class="cls-1" d="M648.3,195.6c-112.8,0-100.3,127.7-99.8,220.3a9.8,9.8,0,0,0,5.2,8.5c12.5,7,46.8,23.4,94.6,23.4s82.1-16.4,94.6-23.4a9.8,9.8,0,0,0,5.2-8.5C748.6,323.3,761.1,195.6,648.3,195.6Z" transform="translate(-353.8 -195.6)"/>
  <path class="cls-2" d="M641,195.9c-105,5.5-93.1,129.5-92.5,220a9.8,9.8,0,0,0,5.2,8.5c12.5,7,46.8,23.4,94.6,23.4L676.8,262" transform="translate(-353.8 -195.6)"/>
  <path class="cls-1" d="M648.3,195.6c-64.2,0-68.6,72.2-68.6,72.2,37-5.8,59.7,8.7,97.1-5.8L648.3,447.8c47.8,0,82.1-16.4,94.6-23.4a9.8,9.8,0,0,0,5.2-8.5C748.6,323.3,761.1,195.6,648.3,195.6Z" transform="translate(-353.8 -195.6)"/>
  <path class="cls-3" d="M748.1,415.9c.4-79.5,9.7-185-59.3-213.1-1.2,5.8-3.4,22.1,2.3,32.6,14.3,26.5,28.5,26.5,42.8,46.4,14.3,73-27.2,150.5-41,161h0a187.1,187.1,0,0,0,50.1-18.5A9.8,9.8,0,0,0,748.1,415.9Z" transform="translate(-353.8 -195.6)"/>
  <path class="cls-4" d="M756.3,436l-63.6-24.7a13.3,13.3,0,0,1-8.8-12.3v-16H612.7v16a13.3,13.3,0,0,1-8.8,12.3L540.3,436c-8,3.1-13.2,10.3-13.2,18.4V481c0,7.3,6.4,13.3,14.3,13.3H755.2c7.9,0,14.3-5.9,14.3-13.3V454.4C769.5,446.4,764.3,439.1,756.3,436Z" transform="translate(-353.8 -195.6)"/>
  <path class="cls-11" d="M756.3,436l-61.5-23.9-46.5,18.7-46.5-18.7L540.3,436c-8,3.1-13.2,10.3-13.2,18.4V481c0,7.3,6.4,13.3,14.3,13.3H755.2c7.9,0,14.3-5.9,14.3-13.3V454.4C769.5,446.4,764.3,439.1,756.3,436Z" transform="translate(-353.8 -195.6)"/>
  <path class="cls-6" d="M683.9,383.1H612.7v16a13.3,13.3,0,0,1-8.8,12.3l-9.9,3.9C670,433.3,683.9,383.1,683.9,383.1Z" transform="translate(-353.8 -195.6)"/>
  <g>
    <path class="cls-12" d="M561.8,461.7l-28.6-21.2a19.2,19.2,0,0,0-6.1,13.9v26.5c0,7.3,6.4,13.3,14.3,13.3h28.5v-17A19.4,19.4,0,0,0,561.8,461.7Z" transform="translate(-353.8 -195.6)"/>
    <path class="cls-12" d="M769.5,480.9V454.4a19.2,19.2,0,0,0-6-13.8l-28.7,21.1a19.4,19.4,0,0,0-8,15.5v17h28.5C763.1,494.2,769.5,488.3,769.5,480.9Z" transform="translate(-353.8 -195.6)"/>
    <path class="cls-12" d="M648.3,480.9h0a6.9,6.9,0,0,1-7.1-6.6V430.9h14.3v43.4A6.9,6.9,0,0,1,648.3,480.9Z" transform="translate(-353.8 -195.6)"/>
    <path class="cls-12" d="M648.3,430.9l-40.8-28.5a6,6,0,0,0-8.2,1.3l-8.1,11.3,25,32.6a6,6,0,0,0,8.2,1.1Z" transform="translate(-353.8 -195.6)"/>
    <path class="cls-12" d="M648.3,430.9l40.8-28.5a6,6,0,0,1,8.2,1.3l8.1,11.3-25,32.6a6,6,0,0,1-8.2,1.1Z" transform="translate(-353.8 -195.6)"/>
  </g>
  <path class="cls-8" d="M683.9,255.3c-35.6,33.2-105.6,6.6-105.6,59.7l4.4,39.1A26.5,26.5,0,0,0,597.3,375l40.6,21a22.8,22.8,0,0,0,20.8,0l40.6-21a26.5,26.5,0,0,0,14.6-20.8l5.1-46.4a68.1,68.1,0,0,0,.3-9.9C716.6,280.9,691.1,268.6,683.9,255.3Z" transform="translate(-353.8 -195.6)"/>
  <path class="cls-4" d="M578.3,315.1l4.4,39.1A26.5,26.5,0,0,0,597.3,375l40.6,21a22.7,22.7,0,0,0,14.5,2h0s-20.5-5.8-32.6-36.5c-3.7-9.4-8.9-59.2-4.5-65.2,8.8-12,57.9-13.3,72.4-35.6l-2-2.5-.2-.2a24.7,24.7,0,0,1-1.7-2.7C648.3,288.5,578.3,262,578.3,315.1Z" transform="translate(-353.8 -195.6)"/>
  <path class="cls-12" d="M705.3,480.9H676.8a6.9,6.9,0,0,0-7.1,6.6v6.6h42.8v-6.6A6.9,6.9,0,0,0,705.3,480.9Z" transform="translate(-353.8 -195.6)"/>
  <text class="cls-13" x="-353.8" y="-195.6"><tspan x="0" y="545.9">EMPR</tspan><tspan class="cls-14" x="288.3" y="545.9">E</tspan><tspan class="cls-15" x="351.9" y="545.9">GOS</tspan></text>
  <path class="cls-16" d="M417.2,573.6c0-17.3.1-34.6-.1-51.9,0-3.8,1.1-4.7,4.7-4.6,15.6.2,31.3-.2,46.9.2,12,.3,20.8,6.3,27,16.7s6.4,23.3-.7,34.6c-1.6,2.6,0,3.5,1.3,4.9,6.9,7,10.7,15.4,9.7,25.2s-3.9,15.9-10.7,22.2-16.7,9.4-26.8,9.3c-15.8-.2-31.6-.2-47.4,0-3.3,0-4.1-1-4.1-4.2.2-17.5.1-35,.1-52.4Zm41.7,31.6h7.5c6-.1,10-3.9,10-9.4s-4.2-9.5-10-9.6-10.3.2-15.4-.1c-3.1-.2-4.3.7-3.8,3.9a23.5,23.5,0,0,1,0,3.5C447.1,605.2,447.1,605.2,458.9,605.2Zm-3.1-63.4c-8.7-.2-8.7-.2-8.7,8.4,0,2.8,0,5.7,0,8.5s.2,2.6,2.1,2.5c4.5-.1,9,.2,13.4-.3a9.8,9.8,0,0,0,8.3-10.2,9.6,9.6,0,0,0-8.7-8.8A56.7,56.7,0,0,0,455.7,541.7Z" transform="translate(-353.8 -195.6)"/>
  <path class="cls-16" d="M718.4,574.1c0,17.3-.1,34.7.1,52,0,3.3-.9,4.3-4.2,4.1-7.2-.2-14.3-.3-21.5,0-3.5.1-4-1.3-4-4.3.2-11.5,0-23,.2-34.5.1-3.5-1-4.5-4.5-4.4-9,.2-18,.3-27,0-4-.2-4.6,1.3-4.5,4.8.2,11.5,0,23,.2,34.5,0,3-.7,4-3.8,3.9-7.5-.2-15-.2-22.5,0-2.9.1-3.6-1-3.6-3.7q.2-52.7.2-105.5c0-3.1.9-4,4-3.9,7.3.2,14.7.2,22,0,2.9-.1,3.6.9,3.6,3.7-.1,10.8.1,21.7-.1,32.5,0,3,.7,4,3.9,3.9,9.5-.2,19-.2,28.5,0,2.8,0,3.7-.8,3.7-3.7-.1-10.8.1-21.7,0-32.5,0-3,.8-4,3.9-3.9,7.2.2,14.3.2,21.5,0,3.2-.1,3.8,1.1,3.8,4-.1,17.7-.1,35.3-.1,53Z" transform="translate(-353.8 -195.6)"/>
  <path class="cls-16" d="M499.9,630.1l39.7-84.7c3.8-8.1,7.8-16.2,11.4-24.4,1.4-3.2,3.2-3.7,6.3-4.1,7-.9,10.4,1.7,13.3,8.2,15.4,33.6,31.4,67,47.2,100.5.9,1.9,3.6,4.6-1.7,4.6ZM580.4,605,559.9,560l-19.3,42.6c-1,2.1-.1,2.5,1.9,2.5Z" transform="translate(-353.8 -195.6)"/>
  <path class="cls-16" d="M761.3,630.1l39.7-84.7c3.8-8.1,7.8-16.2,11.4-24.4,1.4-3.2,3.2-3.7,6.3-4.1,7-.9,10.4,1.7,13.3,8.2,15.4,33.6,31.4,67,47.2,100.5.9,1.9,3.6,4.6-1.7,4.6ZM841.8,605,821.3,560l-19.3,42.6c-1,2.1-.1,2.5,1.9,2.5Z" transform="translate(-353.8 -195.6)"/>
  <path class="cls-16" d="M847.3,562c2,0,2.2,1.8,2.7,3.1,2.4,6.3,6.9,11.7,7.8,18.6H847.6c3.9,8.4,8,15.9,10.9,23.7s6.3,12,14.9,10.3c.4-.1.9.3,1.4.4l5.8,11.6H761.4c-.6-1.6.9-2.8,1.5-4.2,16.1-34.4,32.3-68.8,48.2-103.4,1.8-3.9,3.8-5.9,8.1-5s6.5-1.5,8.4,1.2,3.8,5.8,4,9.4l-9.6.5c3.3,8.9,8.6,16.7,11.3,25.3S840.1,563.3,847.3,562Zm-27.2-2.1-20.3,44.8h40.6Z" transform="translate(-353.8 -195.6)"/>
  <path class="cls-16" d="M756.4,573.7c0,17.1-.2,34.3.1,51.4.1,4.3-1.2,5.3-5.3,5.1-6.6-.3-13.3-.3-20,0-3.7.2-4.3-1.2-4.3-4.5q.3-52.2.2-104.4c0-3.1.5-4.4,4-4.3,7,.3,14,.3,21,0,3.3-.1,4.2,1,4.1,4.2-.1,17.5-.1,35-.1,52.4Z" transform="translate(-353.8 -195.6)"/>
  <path class="cls-17" d="M458.9,605.2c-11.7,0-11.7,0-11.8-11.8a23.5,23.5,0,0,0,0-3.5c-.5-3.1.8-4,3.8-3.9,5.1.3,10.3,0,15.4.1s9.9,4.3,10,9.6-4,9.3-10,9.4Z" transform="translate(-353.8 -195.6)"/>
  <path class="cls-17" d="M455.7,541.7a56.7,56.7,0,0,1,6.5,0,9.6,9.6,0,0,1,8.7,8.8,9.8,9.8,0,0,1-8.3,10.2c-4.4.5-9,.2-13.4.3-1.9,0-2.1-1-2.1-2.5s0-5.7,0-8.5C447,541.6,447,541.6,455.7,541.7Z" transform="translate(-353.8 -195.6)"/>
  <path class="cls-17" d="M580.4,605H542.4c-2,0-2.9-.4-1.9-2.5L559.9,560Z" transform="translate(-353.8 -195.6)"/>
  <path class="cls-17" d="M820.1,559.9l20.3,44.8H799.8Z" transform="translate(-353.8 -195.6)"/>
</svg>
